<svg xmlns="http://www.w3.org/2000/svg" xmlns:xlink="http://www.w3.org/1999/xlink" width="500" zoomAndPan="magnify" viewBox="0 0 375 374.999991" height="500" preserveAspectRatio="xMidYMid meet" version="1.0"><defs><g/><clipPath id="id1"><path d="M 37.5 37.5 L 335 37.5 L 335 333 L 37.5 333 Z M 37.5 37.5 " clip-rule="nonzero"/></clipPath><clipPath id="id2"><path d="M 40 42 L 337.5 42 L 337.5 337.5 L 40 337.5 Z M 40 42 " clip-rule="nonzero"/></clipPath></defs><rect x="-37.5" width="450" fill="rgb(100%, 100%, 100%)" y="-37.499999" height="449.999989" fill-opacity="1"/><rect x="-37.5" width="450" fill="rgb(100%, 100%, 100%)" y="-37.499999" height="449.999989" fill-opacity="1"/><rect x="-37.5" width="450" fill="rgb(100%, 100%, 100%)" y="-37.499999" height="449.999989" fill-opacity="1"/><path fill="rgb(20.779419%, 55.688477%, 61.569214%)" d="M 329.128906 187.058594 C 329.066406 217.191406 319.019531 247.0625 301.246094 271.335938 C 284.3125 294.515625 260.488281 312.414062 233.507812 322.136719 C 205.496094 332.246094 174.460938 333.402344 145.804688 325.546875 C 118.054688 317.886719 92.875 301.855469 74.140625 279.964844 C 55.207031 257.816406 43.230469 230.132812 40.203125 201.160156 C 36.984375 170.191406 45.035156 138.320312 61.582031 112.050781 C 76.84375 87.777344 99.316406 68.335938 125.523438 56.679688 C 152.824219 44.578125 183.734375 41.230469 213.03125 47.152344 C 241.234375 52.816406 267.441406 67.109375 287.597656 87.648438 C 307.878906 108.316406 321.722656 134.90625 326.875 163.429688 C 328.355469 171.542969 329.128906 179.78125 329.128906 188.023438 C 329.128906 190.214844 329.195312 188.089844 329.128906 187.058594 C 329.066406 157.507812 320.695312 128.660156 303.953125 104.195312 C 287.082031 79.601562 262.675781 60.414062 234.730469 50.050781 C 205.753906 39.296875 173.429688 38.136719 143.679688 46.828125 C 114.964844 55.199219 89.207031 72.582031 70.597656 96.082031 C 51.921875 119.648438 41.042969 148.75 39.558594 178.753906 C 38.144531 207.53125 44.132812 236.117188 58.554688 261.164062 C 73.300781 286.851562 95.96875 307.777344 122.820312 320.398438 C 150.894531 333.597656 183.089844 337.332031 213.480469 331.085938 C 242.78125 325.097656 269.824219 309.839844 290.238281 287.949219 C 310.777344 265.992188 324.105469 237.726562 327.96875 207.917969 C 328.808594 201.289062 329.195312 194.65625 329.195312 187.960938 C 329.195312 186.929688 329.128906 184.804688 329.128906 187.058594 Z M 329.128906 187.058594 " fill-opacity="1" fill-rule="nonzero"/><path fill="rgb(20.779419%, 55.688477%, 61.569214%)" d="M 224.042969 326.898438 C 195.257812 333.597656 164.867188 331.535156 137.371094 320.65625 C 110.648438 310.03125 87.339844 291.488281 71.113281 267.730469 C 53.792969 242.429688 44.195312 210.816406 46.0625 180.039062 C 47.867188 151.003906 58.683594 122.804688 76.585938 99.882812 C 113.351562 52.882812 177.292969 32.988281 234.214844 50.949219 C 261.324219 59.511719 285.664062 76.058594 303.5 98.207031 C 322.496094 121.707031 333.699219 151.066406 335.375 181.199219 C 338.722656 240.949219 299.960938 298.183594 245.035156 320.269531 C 238.207031 322.972656 231.191406 325.160156 224.042969 326.898438 C 223.785156 326.964844 224.234375 330.054688 224.042969 330.121094 C 253.792969 322.972656 280.769531 306.683594 300.734375 283.441406 C 320.242188 260.714844 332.347656 232 335.054688 202.1875 C 337.628906 173.730469 332.542969 144.757812 319.40625 119.328125 C 305.625 92.605469 283.410156 70.652344 256.625 56.9375 C 229.707031 43.09375 198.671875 38.074219 168.730469 42.710938 C 138.335938 47.410156 109.8125 61.832031 88.046875 83.65625 C 66.992188 104.839844 52.761719 132.460938 47.800781 161.949219 C 43.101562 189.890625 46.257812 219.378906 57.269531 245.519531 C 68.921875 273.203125 89.335938 296.832031 114.964844 312.605469 C 140.71875 328.382812 171.242188 335.914062 201.375 333.597656 C 209.039062 333.015625 216.574219 331.792969 224.042969 330.054688 C 224.300781 330.054688 223.847656 326.964844 224.042969 326.898438 Z M 224.042969 326.898438 " fill-opacity="1" fill-rule="nonzero"/><g clip-path="url(#id1)"><path fill="rgb(20.779419%, 55.688477%, 61.569214%)" d="M 256.238281 313.703125 C 229.257812 328.1875 197.769531 333.660156 167.507812 329.476562 C 138.660156 325.484375 111.164062 312.929688 89.464844 293.484375 C 66.925781 273.398438 50.894531 246.226562 44.132812 216.804688 C 37.5625 188.347656 39.753906 158.085938 50.25 130.851562 C 60.875 103.292969 79.871094 79.214844 104.273438 62.539062 C 130.351562 44.707031 162.742188 36.527344 194.164062 38.652344 C 223.207031 40.585938 251.410156 51.207031 274.460938 68.976562 C 298.480469 87.519531 316.316406 113.53125 325.203125 142.503906 C 333.765625 170.445312 333.636719 200.707031 325.074219 228.585938 C 316.445312 256.65625 299.316406 281.894531 276.328125 300.179688 C 269.824219 305.394531 262.804688 310.097656 255.464844 314.089844 C 253.46875 315.183594 255.335938 314.214844 256.238281 313.703125 C 282.574219 299.410156 304.273438 277.96875 318.054688 251.25 C 331.898438 224.335938 337.242188 193.304688 332.992188 163.300781 C 328.613281 132.203125 314.0625 102.84375 291.976562 80.503906 C 270.660156 58.871094 242.652344 44.320312 212.773438 39.039062 C 182.765625 33.761719 151.472656 38.074219 123.976562 51.207031 C 97.640625 63.828125 74.976562 82.949219 59.585938 107.867188 C 43.746094 133.492188 36.019531 163.816406 37.757812 193.820312 C 39.558594 225.238281 51.730469 255.757812 71.949219 279.898438 C 91.460938 303.144531 118.117188 319.945312 147.480469 327.609375 C 176.972656 335.335938 208.652344 333.597656 237.113281 322.652344 C 243.425781 320.203125 249.542969 317.308594 255.53125 314.089844 C 256.367188 313.703125 258.296875 312.605469 256.238281 313.703125 Z M 256.238281 313.703125 " fill-opacity="1" fill-rule="nonzero"/></g><g clip-path="url(#id2)"><path fill="rgb(20.779419%, 55.688477%, 61.569214%)" d="M 80.707031 287.367188 C 60.808594 264.898438 48.058594 236.828125 44.519531 207.015625 C 41.105469 178.042969 46.386719 148.300781 59.78125 122.351562 C 74.011719 94.667969 97.640625 70.84375 125.972656 57.710938 C 152.761719 45.285156 183.152344 41.355469 212.257812 46.25 C 271.949219 56.359375 320.566406 103.808594 331.960938 163.300781 C 337.371094 191.628906 334.34375 221.375 323.203125 247.964844 C 311.421875 276.230469 290.621094 300.375 264.542969 316.46875 C 212.839844 348.277344 143.039062 341.257812 96.804688 302.949219 C 91.074219 298.121094 85.730469 292.90625 80.707031 287.367188 C 80.511719 287.175781 78.003906 289.105469 77.808594 288.914062 C 98.542969 312.027344 126.101562 328.253906 156.496094 334.820312 C 186.179688 341.257812 217.667969 338.230469 245.613281 326.257812 C 272.207031 314.796875 295.644531 296.316406 312 272.367188 C 329.195312 247.191406 338.144531 216.738281 337.4375 186.285156 C 336.726562 155.574219 326.296875 125.441406 307.6875 100.976562 C 288.820312 76.125 262.226562 57.582031 232.21875 48.695312 C 203.242188 40.070312 171.628906 40.648438 142.972656 50.433594 C 115.734375 59.769531 90.878906 76.769531 72.851562 99.238281 C 53.792969 122.996094 42.523438 152.613281 40.847656 183.066406 C 39.175781 213.714844 47.222656 244.488281 63.773438 270.308594 C 67.957031 276.875 72.722656 283.054688 77.875 288.847656 C 78.066406 289.105469 80.578125 287.175781 80.707031 287.367188 Z M 80.707031 287.367188 " fill-opacity="1" fill-rule="nonzero"/></g><g fill="rgb(0%, 0%, 0%)" fill-opacity="1"><g transform="translate(93.766125, 226.124985)"><g><path d="M 28.015625 0.21875 C 24.234375 0.21875 22.34375 -0.816406 22.34375 -2.890625 L 22.34375 -62.875 L 4.171875 -62.875 C 3.171875 -62.875 2.4375 -63.226562 1.96875 -63.9375 C 1.507812 -64.65625 1.28125 -65.835938 1.28125 -67.484375 L 1.28125 -70.265625 C 1.28125 -71.898438 1.507812 -73.070312 1.96875 -73.78125 C 2.4375 -74.5 3.171875 -74.859375 4.171875 -74.859375 L 54.53125 -74.859375 C 55.53125 -74.859375 56.257812 -74.5 56.71875 -73.78125 C 57.1875 -73.070312 57.421875 -71.898438 57.421875 -70.265625 L 57.421875 -67.484375 C 57.421875 -65.835938 57.1875 -64.65625 56.71875 -63.9375 C 56.257812 -63.226562 55.53125 -62.875 54.53125 -62.875 L 36.46875 -62.875 L 36.46875 -2.890625 C 36.46875 -0.816406 34.578125 0.21875 30.796875 0.21875 Z M 28.015625 0.21875 "/></g></g></g><g fill="rgb(0%, 0%, 0%)" fill-opacity="1"><g transform="translate(152.472665, 226.124985)"><g><path d="M 13.359375 0.21875 C 9.585938 0.21875 7.703125 -0.816406 7.703125 -2.890625 L 7.703125 -37.96875 C 7.703125 -42.738281 7.488281 -46.226562 7.0625 -48.4375 C 6.632812 -50.644531 6.421875 -52 6.421875 -52.5 C 6.421875 -53.5 7.59375 -54.265625 9.9375 -54.796875 C 12.289062 -55.335938 14.394531 -55.609375 16.25 -55.609375 C 17.394531 -55.609375 18.21875 -55.109375 18.71875 -54.109375 C 19.21875 -53.109375 19.59375 -52.054688 19.84375 -50.953125 C 20.09375 -49.847656 20.25 -49.082031 20.3125 -48.65625 C 23.59375 -54 27.550781 -56.671875 32.1875 -56.671875 C 34.394531 -56.671875 35.976562 -56.15625 36.9375 -55.125 C 37.90625 -54.09375 38.390625 -52.898438 38.390625 -51.546875 C 38.390625 -50.117188 38.101562 -48.441406 37.53125 -46.515625 C 36.957031 -44.585938 36.242188 -43.625 35.390625 -43.625 C 35.035156 -43.625 34.34375 -43.785156 33.3125 -44.109375 C 32.28125 -44.429688 31.226562 -44.59375 30.15625 -44.59375 C 28.09375 -44.59375 26.238281 -43.914062 24.59375 -42.5625 C 22.957031 -41.207031 21.816406 -39.957031 21.171875 -38.8125 L 21.171875 -2.890625 C 21.171875 -0.816406 19.25 0.21875 15.40625 0.21875 Z M 13.359375 0.21875 "/></g></g></g><g fill="rgb(0%, 0%, 0%)" fill-opacity="1"><g transform="translate(191.610358, 226.124985)"><g><path d="M 14.109375 -63.953125 C 9.617188 -63.953125 7.375 -65.128906 7.375 -67.484375 L 7.375 -74.421875 C 7.375 -76.773438 9.691406 -77.953125 14.328125 -77.953125 C 18.816406 -77.953125 21.0625 -76.773438 21.0625 -74.421875 L 21.0625 -67.484375 C 21.0625 -66.265625 20.507812 -65.367188 19.40625 -64.796875 C 18.300781 -64.234375 16.535156 -63.953125 14.109375 -63.953125 Z M 13.15625 0.21875 C 9.375 0.21875 7.484375 -0.816406 7.484375 -2.890625 L 7.484375 -53.046875 C 7.484375 -55.109375 9.375 -56.140625 13.15625 -56.140625 L 15.296875 -56.140625 C 19.066406 -56.140625 20.953125 -55.109375 20.953125 -53.046875 L 20.953125 -2.890625 C 20.953125 -0.816406 19.066406 0.21875 15.296875 0.21875 Z M 13.15625 0.21875 "/></g></g></g><g fill="rgb(0%, 0%, 0%)" fill-opacity="1"><g transform="translate(219.947758, 226.124985)"><g><path d="M 13.796875 22.140625 C 11.796875 22.140625 10.347656 21.890625 9.453125 21.390625 C 8.566406 20.890625 8.125 20.101562 8.125 19.03125 L 8.125 -37.96875 C 8.125 -42.738281 7.910156 -46.226562 7.484375 -48.4375 C 7.054688 -50.644531 6.84375 -52 6.84375 -52.5 C 6.84375 -53.5 8.019531 -54.265625 10.375 -54.796875 C 12.726562 -55.335938 14.796875 -55.609375 16.578125 -55.609375 C 17.785156 -55.609375 18.640625 -55.109375 19.140625 -54.109375 C 19.640625 -53.109375 20.015625 -52.054688 20.265625 -50.953125 C 20.515625 -49.847656 20.675781 -49.082031 20.75 -48.65625 C 22.53125 -51.15625 24.71875 -53.113281 27.3125 -54.53125 C 29.914062 -55.957031 32.789062 -56.671875 35.9375 -56.671875 C 40 -56.671875 43.5625 -55.507812 46.625 -53.1875 C 49.6875 -50.875 52.054688 -47.539062 53.734375 -43.1875 C 55.410156 -38.84375 56.25 -33.75 56.25 -27.90625 C 56.25 -19 54.269531 -11.992188 50.3125 -6.890625 C 46.351562 -1.796875 40.914062 0.75 34 0.75 C 29.300781 0.75 25.132812 -0.601562 21.5 -3.3125 L 21.5 19.03125 C 21.5 21.101562 19.609375 22.140625 15.828125 22.140625 Z M 31.015625 -10.15625 C 38.640625 -10.15625 42.453125 -16.003906 42.453125 -27.703125 C 42.453125 -33.546875 41.597656 -37.984375 39.890625 -41.015625 C 38.179688 -44.046875 35.648438 -45.5625 32.296875 -45.5625 C 30.222656 -45.5625 28.273438 -44.953125 26.453125 -43.734375 C 24.640625 -42.523438 22.988281 -40.882812 21.5 -38.8125 L 21.5 -13.15625 C 24.34375 -11.15625 27.515625 -10.15625 31.015625 -10.15625 Z M 31.015625 -10.15625 "/></g></g></g></svg>